<svg width="63" height="65" viewBox="0 0 63 65" fill="none" xmlns="http://www.w3.org/2000/svg">
<g filter="url(#filter0_d_2294_224)">
<path d="M21.725 31.9048C21.725 29.221 22.7549 26.6472 24.588 24.7495C26.4212 22.8518 28.9075 21.7857 31.5 21.7857C34.0925 21.7857 36.5788 22.8518 38.412 24.7495C40.2451 26.6472 41.275 29.221 41.275 31.9048V34.2857H38.6875C38.4588 34.2857 38.2394 34.3798 38.0776 34.5472C37.9159 34.7147 37.825 34.9418 37.825 35.1786V42.9167C37.825 43.4095 38.2114 43.8095 38.6875 43.8095H39.55C40.465 43.8095 41.3425 43.4332 41.9895 42.7635C42.6365 42.0937 43 41.1853 43 40.2381V31.9048C43 25.3298 37.8514 20 31.5 20C25.1486 20 20 25.3298 20 31.9048V40.2381C20 41.1853 20.3635 42.0937 21.0105 42.7635C21.6575 43.4332 22.535 43.8095 23.45 43.8095H24.3125C24.5412 43.8095 24.7606 43.7155 24.9224 43.548C25.0841 43.3806 25.175 43.1535 25.175 42.9167V35.1786C25.175 34.9418 25.0841 34.7147 24.9224 34.5472C24.7606 34.3798 24.5412 34.2857 24.3125 34.2857H21.725V31.9048ZM32.3625 31.6071C32.3625 31.3703 32.2716 31.1432 32.1099 30.9758C31.9481 30.8084 31.7287 30.7143 31.5 30.7143C31.2713 30.7143 31.0519 30.8084 30.8901 30.9758C30.7284 31.1432 30.6375 31.3703 30.6375 31.6071V44.1071C30.6375 44.3439 30.7284 44.571 30.8901 44.7385C31.0519 44.9059 31.2713 45 31.5 45C31.7287 45 31.9481 44.9059 32.1099 44.7385C32.2716 44.571 32.3625 44.3439 32.3625 44.1071V31.6071ZM27.7625 34.2857C27.9912 34.2857 28.2106 34.3798 28.3724 34.5472C28.5341 34.7147 28.625 34.9418 28.625 35.1786V40.5357C28.625 40.7725 28.5341 40.9996 28.3724 41.1671C28.2106 41.3345 27.9912 41.4286 27.7625 41.4286C27.5338 41.4286 27.3144 41.3345 27.1526 41.1671C26.9909 40.9996 26.9 40.7725 26.9 40.5357V35.1786C26.9 34.9418 26.9909 34.7147 27.1526 34.5472C27.3144 34.3798 27.5338 34.2857 27.7625 34.2857ZM36.1 35.1786C36.1 34.9418 36.0091 34.7147 35.8474 34.5472C35.6856 34.3798 35.4662 34.2857 35.2375 34.2857C35.0088 34.2857 34.7894 34.3798 34.6276 34.5472C34.4659 34.7147 34.375 34.9418 34.375 35.1786V40.5357C34.375 40.7725 34.4659 40.9996 34.6276 41.1671C34.7894 41.3345 35.0088 41.4286 35.2375 41.4286C35.4662 41.4286 35.6856 41.3345 35.8474 41.1671C36.0091 40.9996 36.1 40.7725 36.1 40.5357V35.1786Z" fill="#CAA6F9"/>
</g>
<defs>
<filter id="filter0_d_2294_224" x="0" y="0" width="63" height="65" filterUnits="userSpaceOnUse" color-interpolation-filters="sRGB">
<feFlood flood-opacity="0" result="BackgroundImageFix"/>
<feColorMatrix in="SourceAlpha" type="matrix" values="0 0 0 0 0 0 0 0 0 0 0 0 0 0 0 0 0 0 127 0" result="hardAlpha"/>
<feOffset/>
<feGaussianBlur stdDeviation="10"/>
<feComposite in2="hardAlpha" operator="out"/>
<feColorMatrix type="matrix" values="0 0 0 0 0.792157 0 0 0 0 0.65098 0 0 0 0 0.976471 0 0 0 1 0"/>
<feBlend mode="normal" in2="BackgroundImageFix" result="effect1_dropShadow_2294_224"/>
<feBlend mode="normal" in="SourceGraphic" in2="effect1_dropShadow_2294_224" result="shape"/>
</filter>
</defs>
</svg>
