<svg width="32" height="31" viewBox="0 0 32 31" fill="none" xmlns="http://www.w3.org/2000/svg">
<g clip-path="url(#clip0_2293_205)">
<path d="M17.8528 28.1774L17.8375 28.1799L17.7389 28.2233L17.7112 28.2282L17.6917 28.2233L17.5931 28.1799C17.5783 28.1757 17.5672 28.1778 17.5598 28.1861L17.5542 28.1985L17.5306 28.7293L17.5375 28.7541L17.5514 28.7702L17.6959 28.862L17.7167 28.867L17.7334 28.862L17.8778 28.7702L17.8945 28.7504L17.9 28.7293L17.8764 28.1997C17.8727 28.1865 17.8649 28.179 17.8528 28.1774ZM18.2209 28.0372L18.2028 28.0397L17.9459 28.1551L17.932 28.1675L17.9278 28.1811L17.9528 28.7144L17.9598 28.7293L17.9709 28.738L18.25 28.8533C18.2676 28.8574 18.2811 28.8541 18.2903 28.8434L18.2959 28.826L18.2487 28.0645C18.244 28.0496 18.2348 28.0406 18.2209 28.0372ZM17.2278 28.0397C17.2217 28.0364 17.2144 28.0353 17.2074 28.0367C17.2004 28.0381 17.1943 28.0419 17.1903 28.0472L17.182 28.0645L17.1348 28.826C17.1357 28.8409 17.1436 28.8508 17.1584 28.8558L17.1792 28.8533L17.4584 28.738L17.4723 28.728L17.4778 28.7144L17.5014 28.1811L17.4973 28.1662L17.4834 28.1538L17.2278 28.0397Z" fill="#CAA6F9"/>
<g filter="url(#filter0_d_2293_205)">
<path d="M17.0293 3.05298C17.3695 3.05302 17.6978 3.16454 17.952 3.3664C18.2063 3.56826 18.3687 3.84641 18.4085 4.1481L18.4182 4.2932V24.1368C18.4178 24.4529 18.2822 24.7569 18.0392 24.9868C17.7962 25.2166 17.4641 25.355 17.1107 25.3735C16.7573 25.392 16.4093 25.2893 16.1379 25.0865C15.8664 24.8836 15.6919 24.5958 15.6501 24.2819L15.6404 24.1368V4.2932C15.6404 3.96427 15.7867 3.64882 16.0472 3.41623C16.3077 3.18364 16.6609 3.05298 17.0293 3.05298ZM11.4737 6.77365C11.8421 6.77365 12.1954 6.90431 12.4558 7.1369C12.7163 7.36949 12.8626 7.68494 12.8626 8.01387V20.4161C12.8626 20.745 12.7163 21.0605 12.4558 21.2931C12.1954 21.5257 11.8421 21.6563 11.4737 21.6563C11.1054 21.6563 10.7521 21.5257 10.4916 21.2931C10.2312 21.0605 10.0849 20.745 10.0849 20.4161V8.01387C10.0849 7.68494 10.2312 7.36949 10.4916 7.1369C10.7521 6.90431 11.1054 6.77365 11.4737 6.77365ZM22.5849 6.77365C22.9532 6.77365 23.3065 6.90431 23.5669 7.1369C23.8274 7.36949 23.9737 7.68494 23.9737 8.01387V20.4161C23.9737 20.745 23.8274 21.0605 23.5669 21.2931C23.3065 21.5257 22.9532 21.6563 22.5849 21.6563C22.2165 21.6563 21.8632 21.5257 21.6028 21.2931C21.3423 21.0605 21.196 20.745 21.196 20.4161V8.01387C21.196 7.68494 21.3423 7.36949 21.6028 7.1369C21.8632 6.90431 22.2165 6.77365 22.5849 6.77365ZM5.91819 10.4943C6.28654 10.4943 6.63981 10.625 6.90028 10.8576C7.16075 11.0902 7.30707 11.4056 7.30707 11.7345V16.6954C7.30707 17.0244 7.16075 17.3398 6.90028 17.5724C6.63981 17.805 6.28654 17.9357 5.91819 17.9357C5.54983 17.9357 5.19656 17.805 4.93609 17.5724C4.67563 17.3398 4.5293 17.0244 4.5293 16.6954V11.7345C4.5293 11.4056 4.67563 11.0902 4.93609 10.8576C5.19656 10.625 5.54983 10.4943 5.91819 10.4943ZM28.1404 10.4943C28.4806 10.4944 28.8089 10.6059 29.0631 10.8077C29.3174 11.0096 29.4798 11.2877 29.5196 11.5894L29.5293 11.7345V16.6954C29.5289 17.0115 29.3934 17.3156 29.1503 17.5454C28.9073 17.7753 28.5752 17.9136 28.2218 17.9321C27.8684 17.9507 27.5204 17.848 27.249 17.6451C26.9775 17.4422 26.8031 17.1544 26.7612 16.8405L26.7515 16.6954V11.7345C26.7515 11.4056 26.8978 11.0902 27.1583 10.8576C27.4188 10.625 27.7721 10.4943 28.1404 10.4943Z" fill="#9783F5"/>
</g>
</g>
<defs>
<filter id="filter0_d_2293_205" x="-45.4707" y="-46.947" width="125" height="122.323" filterUnits="userSpaceOnUse" color-interpolation-filters="sRGB">
<feFlood flood-opacity="0" result="BackgroundImageFix"/>
<feColorMatrix in="SourceAlpha" type="matrix" values="0 0 0 0 0 0 0 0 0 0 0 0 0 0 0 0 0 0 127 0" result="hardAlpha"/>
<feOffset/>
<feGaussianBlur stdDeviation="25"/>
<feComposite in2="hardAlpha" operator="out"/>
<feColorMatrix type="matrix" values="0 0 0 0 0.592157 0 0 0 0 0.513726 0 0 0 0 0.960784 0 0 0 1 0"/>
<feBlend mode="normal" in2="BackgroundImageFix" result="effect1_dropShadow_2293_205"/>
<feBlend mode="normal" in="SourceGraphic" in2="effect1_dropShadow_2293_205" result="shape"/>
</filter>
<clipPath id="clip0_2293_205">
<rect width="31.0588" height="30.1041" fill="white"/>
</clipPath>
</defs>
</svg>
