<svg width="32" height="32" viewBox="0 0 32 32" fill="none" xmlns="http://www.w3.org/2000/svg">
<g clip-path="url(#clip0_2290_194)">
<path d="M16.7677 30.1204L16.7535 30.1229L16.6616 30.1668L16.6357 30.1718L16.6176 30.1668L16.5257 30.1229C16.5119 30.1187 16.5015 30.1208 16.4946 30.1292L16.4895 30.1417L16.4675 30.6786L16.4739 30.7037L16.4869 30.72L16.6215 30.8128L16.6409 30.8178L16.6564 30.8128L16.791 30.72L16.8065 30.6999L16.8117 30.6786L16.7897 30.143C16.7862 30.1296 16.7789 30.1221 16.7677 30.1204ZM17.1106 29.9787L17.0938 29.9812L16.8544 30.0978L16.8415 30.1104L16.8376 30.1242L16.8609 30.6635L16.8673 30.6786L16.8777 30.6874L17.1378 30.804C17.1542 30.8082 17.1667 30.8049 17.1753 30.794L17.1805 30.7764L17.1365 30.0063C17.1322 29.9912 17.1236 29.982 17.1106 29.9787ZM16.1853 29.9812C16.1796 29.9778 16.1728 29.9767 16.1663 29.9781C16.1598 29.9795 16.1541 29.9833 16.1504 29.9887L16.1426 30.0063L16.0986 30.7764C16.0995 30.7915 16.1068 30.8015 16.1206 30.8065L16.14 30.804L16.4002 30.6874L16.4131 30.6773L16.4183 30.6635L16.4403 30.1242L16.4364 30.1091L16.4235 30.0966L16.1853 29.9812Z" fill="#CAA6F9"/>
<g filter="url(#filter0_d_2290_194)">
<path d="M25.1499 16.0117C25.3184 16.0348 25.4805 16.0899 25.627 16.1737C25.7735 16.2576 25.9016 16.3687 26.0037 16.5006C26.1059 16.6325 26.1802 16.7826 26.2225 16.9423C26.2647 17.1021 26.274 17.2684 26.2499 17.4316C25.9255 19.6067 24.8738 21.6185 23.2561 23.1584C21.6384 24.6982 19.5441 25.6811 17.2946 25.9561V27.2882C17.2946 27.6209 17.1583 27.9399 16.9156 28.1752C16.6729 28.4104 16.3437 28.5426 16.0005 28.5426C15.6573 28.5426 15.3281 28.4104 15.0854 28.1752C14.8427 27.9399 14.7064 27.6209 14.7064 27.2882V25.9561C12.4572 25.6806 10.3633 24.6976 8.74589 23.1578C7.12849 21.618 6.07689 19.6064 5.75238 17.4316C5.70364 17.1023 5.79188 16.7677 5.99768 16.5014C6.20349 16.2351 6.51 16.059 6.84979 16.0117C7.18958 15.9645 7.53481 16.05 7.80954 16.2495C8.08427 16.449 8.26599 16.7461 8.31473 17.0754C8.58237 18.8661 9.50654 20.5034 10.918 21.6876C12.3294 22.8717 14.1337 23.5235 16.0005 23.5235C17.8672 23.5235 19.6715 22.8717 21.083 21.6876C22.4945 20.5034 23.4186 18.8661 23.6863 17.0754C23.7104 16.9123 23.7674 16.7554 23.8541 16.6137C23.9407 16.472 24.0554 16.3482 24.1914 16.2494C24.3274 16.1507 24.4822 16.0788 24.6469 16.038C24.8116 15.9973 24.9817 15.9883 25.1499 16.0117ZM16.0005 3.45581C17.7166 3.45581 19.3624 4.11658 20.5759 5.29275C21.7894 6.46892 22.4711 8.06414 22.4711 9.7275V15.9992C22.4711 17.6625 21.7894 19.2578 20.5759 20.4339C19.3624 21.6101 17.7166 22.2709 16.0005 22.2709C14.2844 22.2709 12.6386 21.6101 11.4251 20.4339C10.2116 19.2578 9.5299 17.6625 9.5299 15.9992V9.7275C9.5299 8.06414 10.2116 6.46892 11.4251 5.29275C12.6386 4.11658 14.2844 3.45581 16.0005 3.45581Z" fill="#CAA6F9"/>
</g>
</g>
<defs>
<filter id="filter0_d_2290_194" x="-44.2607" y="-46.5442" width="120.523" height="125.087" filterUnits="userSpaceOnUse" color-interpolation-filters="sRGB">
<feFlood flood-opacity="0" result="BackgroundImageFix"/>
<feColorMatrix in="SourceAlpha" type="matrix" values="0 0 0 0 0 0 0 0 0 0 0 0 0 0 0 0 0 0 127 0" result="hardAlpha"/>
<feOffset/>
<feGaussianBlur stdDeviation="25"/>
<feComposite in2="hardAlpha" operator="out"/>
<feColorMatrix type="matrix" values="0 0 0 0 0.792157 0 0 0 0 0.65098 0 0 0 0 0.976471 0 0 0 1 0"/>
<feBlend mode="normal" in2="BackgroundImageFix" result="effect1_dropShadow_2290_194"/>
<feBlend mode="normal" in="SourceGraphic" in2="effect1_dropShadow_2290_194" result="shape"/>
</filter>
<clipPath id="clip0_2290_194">
<rect width="31.0588" height="30.1041" fill="white" transform="translate(0.470703 0.947021)"/>
</clipPath>
</defs>
</svg>
