<svg width="18" height="19" viewBox="0 0 18 19" fill="none" xmlns="http://www.w3.org/2000/svg">
<g clip-path="url(#clip0_2300_26)">
<path d="M0 2.375C0 1.74511 0.237053 1.14102 0.65901 0.695621C1.08097 0.250223 1.65326 0 2.25 0L11.25 0C11.8467 0 12.419 0.250223 12.841 0.695621C13.2629 1.14102 13.5 1.74511 13.5 2.375V4.75H15.75C16.3467 4.75 16.919 5.00022 17.341 5.44562C17.7629 5.89102 18 6.49511 18 7.125V16.625C18 17.2549 17.7629 17.859 17.341 18.3044C16.919 18.7498 16.3467 19 15.75 19H6.75C6.15326 19 5.58097 18.7498 5.15901 18.3044C4.73705 17.859 4.5 17.2549 4.5 16.625V14.25H2.25C1.65326 14.25 1.08097 13.9998 0.65901 13.5544C0.237053 13.109 0 12.5049 0 11.875V2.375ZM2.25 1.1875C1.95163 1.1875 1.66548 1.31261 1.4545 1.53531C1.24353 1.75801 1.125 2.06006 1.125 2.375V11.875C1.125 12.1899 1.24353 12.492 1.4545 12.7147C1.66548 12.9374 1.95163 13.0625 2.25 13.0625H11.25C11.5484 13.0625 11.8345 12.9374 12.0455 12.7147C12.2565 12.492 12.375 12.1899 12.375 11.875V2.375C12.375 2.06006 12.2565 1.75801 12.0455 1.53531C11.8345 1.31261 11.5484 1.1875 11.25 1.1875H2.25Z" fill="black"/>
</g>
<defs>
<clipPath id="clip0_2300_26">
<rect width="18" height="19" fill="white"/>
</clipPath>
</defs>
</svg>
