<svg width="17" height="13" viewBox="0 0 17 13" fill="none" xmlns="http://www.w3.org/2000/svg">
<path d="M7.22673 12.974L7.06749 12.5001C7.06728 12.5001 7.06714 12.5001 7.06746 12.5L7.22673 12.974ZM7.22673 12.974L7.06624 12.5005L7.22673 12.974ZM0.912993 7.88565L0.912769 7.8853L3.05627 4.44339L2.96552 3.9517L3.05725 4.44321L3.05665 4.44332C3.25375 4.40686 3.43801 4.30747 3.57548 4.15403L3.57591 4.15355L5.48001 2.02263L5.4801 2.02253C6.03488 1.40132 6.41641 0.97629 6.71709 0.719864C6.86543 0.593356 6.96351 0.535296 7.02437 0.511625C7.04389 0.50403 7.05604 0.501409 7.06202 0.500499C7.06421 0.503651 7.06702 0.508057 7.07035 0.514013C7.09548 0.558893 7.12972 0.653605 7.15659 0.836955C7.2111 1.20889 7.21288 1.75898 7.21288 2.56914V10.432C7.21288 11.242 7.21156 11.7916 7.15734 12.1634C7.13062 12.3467 7.09649 12.4412 7.07143 12.486C7.06814 12.4919 7.06536 12.4963 7.06319 12.4994C7.05703 12.4985 7.04488 12.4958 7.0256 12.4883C6.96457 12.4645 6.86639 12.4063 6.71801 12.2797C6.41726 12.0232 6.0357 11.5984 5.48091 10.9776L5.48076 10.9774L3.5739 8.84565L3.57387 8.84562C3.43683 8.69244 3.25317 8.59303 3.0566 8.55623L3.05633 8.55618L1.49751 8.26525L1.49726 8.2652C1.37232 8.24195 1.25583 8.1949 1.15502 8.12866C1.0553 8.06314 0.973727 7.98012 0.912993 7.88565Z" fill="white" stroke="white"/>
<path d="M10.0479 3.46575C10.9069 4.26645 11.3916 5.35119 11.3963 6.48356C11.4009 7.61593 10.9252 8.70411 10.0727 9.51092M13.8422 1.64551C15.2168 2.92651 15.9923 4.66199 15.9999 6.47369C16.0075 8.28539 15.2465 10.0265 13.8828 11.3174" fill="white"/>
<path d="M10.0479 3.46575C10.9069 4.26645 11.3916 5.35119 11.3963 6.48356C11.4009 7.61593 10.9252 8.70411 10.0727 9.51092M13.8422 1.64551C15.2168 2.92651 15.9923 4.66199 15.9999 6.47369C16.0075 8.28539 15.2465 10.0265 13.8828 11.3174" stroke="white" stroke-width="2" stroke-linecap="round"/>
</svg>
